<?xml version="1.0" standalone="no"?>
<!DOCTYPE svg PUBLIC "-//W3C//DTD SVG 20010904//EN"
 "http://www.w3.org/TR/2001/REC-SVG-20010904/DTD/svg10.dtd">
<svg version="1.0" xmlns="http://www.w3.org/2000/svg"
 width="208.000000pt" height="224.000000pt" viewBox="0 0 208.000000 224.000000"
 preserveAspectRatio="xMidYMid meet">

<g transform="translate(0.000000,224.000000) scale(0.100000,-0.100000)"
fill="#000000" stroke="none">
<path d="M1031 1817 c-24 -25 -37 -45 -30 -44 8 1 48 -2 89 -6 89 -10 212 -48
300 -92 64 -32 190 -119 190 -131 0 -3 -21 -29 -46 -58 -65 -71 -120 -156
-160 -241 -84 -181 -86 -374 -8 -569 28 -71 40 -83 24 -25 -19 67 -28 208 -19
294 20 199 144 408 320 542 l51 38 -69 64 c-80 75 -152 125 -248 173 -88 44
-221 87 -294 94 -56 6 -56 6 -100 -39z"/>
<path d="M745 1685 c-44 -9 -82 -19 -86 -23 -8 -9 -40 -104 -36 -108 1 -2 36
6 77 16 153 40 336 36 496 -11 l72 -21 -39 -77 c-75 -148 -98 -323 -64 -486
20 -97 92 -237 161 -310 30 -33 47 -46 36 -30 -172 265 -171 595 4 855 30 45
54 83 54 85 0 9 -185 79 -255 96 -109 27 -314 34 -420 14z"/>
<path d="M817 1530 c-133 -15 -270 -58 -409 -127 -66 -32 -68 -34 -68 -71 0
-135 38 -286 97 -384 31 -52 131 -153 141 -143 2 2 -7 19 -21 37 -71 95 -117
242 -117 375 l0 84 63 39 c96 62 200 92 337 98 l115 4 0 -168 c0 -146 3 -180
23 -247 56 -196 175 -339 340 -413 68 -31 74 -30 26 4 -121 88 -229 249 -270
402 -25 92 -23 295 4 415 11 50 19 91 18 92 -6 8 -217 10 -279 3z"/>
<path d="M638 1286 c-30 -10 -34 -26 -18 -56 8 -14 4 -25 -20 -50 -78 -83 -30
-206 86 -220 l45 -5 30 -70 c16 -38 29 -75 29 -82 0 -9 -18 -13 -60 -13 -53 0
-60 -2 -60 -20 0 -11 11 -27 25 -36 21 -14 34 -15 76 -7 48 10 51 9 59 -13 11
-27 28 -30 55 -10 16 12 17 18 8 39 -10 22 -9 27 11 40 28 19 56 75 56 114 0
72 -66 133 -145 133 l-40 0 -28 72 c-32 81 -27 92 36 83 44 -6 50 12 16 46
-17 17 -28 20 -63 15 -39 -6 -43 -5 -57 22 -13 25 -17 27 -41 18z m41 -198
c12 -28 19 -53 17 -55 -9 -9 -47 19 -56 42 -9 24 -3 65 10 65 4 0 17 -23 29
-52z m186 -158 c18 -20 17 -81 -1 -87 -8 -3 -54 92 -54 112 0 9 41 -9 55 -25z"/>
</g>
</svg>
